/* XPM */
static char * mine_xpm[] = {
"12 12 4 1",
" 	c None",
".	c #FF00FF",
"+	c #000000",
"@	c #FFFFFF",
".....++.....",
".....++.....",
"...++++++...",
"..+++@@@++..",
"..++++@@@+..",
"++++++++++++",
"++++++++++++",
"..++++++++..",
"..++++++++..",
"...++++++...",
".....++.....",
".....++....."};
