<?xml version="1.0" encoding="UTF-8" standalone="no"?>
<svg
   xmlns:dc="http://purl.org/dc/elements/1.1/"
   xmlns:cc="http://creativecommons.org/ns#"
   xmlns:rdf="http://www.w3.org/1999/02/22-rdf-syntax-ns#"
   xmlns:svg="http://www.w3.org/2000/svg"
   xmlns="http://www.w3.org/2000/svg"
   xmlns:xlink="http://www.w3.org/1999/xlink"
   xmlns:sodipodi="http://sodipodi.sourceforge.net/DTD/sodipodi-0.dtd"
   xmlns:inkscape="http://www.inkscape.org/namespaces/inkscape"
   version="1.1"
   width="16"
   height="16"
   id="svg2822"
   inkscape:version="0.47pre4 r22446"
   sodipodi:docname="mine.svg">
  <metadata
     id="metadata2843">
    <rdf:RDF>
      <cc:Work
         rdf:about="">
        <dc:format>image/svg+xml</dc:format>
        <dc:type
           rdf:resource="http://purl.org/dc/dcmitype/StillImage" />
      </cc:Work>
    </rdf:RDF>
  </metadata>
  <defs
     id="defs2841">
    <inkscape:perspective
       sodipodi:type="inkscape:persp3d"
       inkscape:vp_x="0 : 80 : 1"
       inkscape:vp_y="0 : 1000 : 0"
       inkscape:vp_z="160 : 80 : 1"
       inkscape:persp3d-origin="80 : 53.333333 : 1"
       id="perspective2845" />
    <radialGradient
       inkscape:collect="always"
       xlink:href="#paint"
       id="radialGradient2861"
       gradientUnits="userSpaceOnUse"
       cx="67"
       cy="67"
       r="100" />
  </defs>
  <sodipodi:namedview
     pagecolor="#ffffff"
     bordercolor="#666666"
     borderopacity="1"
     objecttolerance="10"
     gridtolerance="10"
     guidetolerance="10"
     inkscape:pageopacity="0"
     inkscape:pageshadow="2"
     inkscape:window-width="956"
     inkscape:window-height="1177"
     id="namedview2839"
     showgrid="false"
     inkscape:zoom="1.54375"
     inkscape:cx="77.5"
     inkscape:cy="77.500005"
     inkscape:window-x="1024"
     inkscape:window-y="19"
     inkscape:window-maximized="0"
     inkscape:current-layer="svg2822" />
  <radialGradient
     id="paint"
     cx="67"
     cy="67"
     r="100"
     gradientUnits="userSpaceOnUse">
    <stop
       offset="0"
       style="stop-color:#808080"
       id="stop2825" />
    <stop
       offset="0.12"
       style="stop-color:#606060"
       id="stop2827" />
    <stop
       offset="0.45"
       style="stop-color:#202020"
       id="stop2829" />
    <stop
       offset="1"
       style="stop-color:#000000"
       id="stop2831" />
  </radialGradient>
  <g
     id="g2854"
     transform="matrix(0.10322581,0,0,0.10322581,-0.25806453,-0.25806453)">
    <path
       id="path2833"
       d="M 155,84.839 V 75.161 H 133.967 C 132.964,63.832 128.481,53.506 121.584,45.26 l 14.87,-14.871 -6.842,-6.843 -14.872,14.871 C 106.494,31.52 96.167,27.037 84.839,26.033 V 5 h -9.678 v 21.033 c -11.33,1.003 -21.657,5.486 -29.903,12.383 l -14.87,-14.87 -6.843,6.843 14.87,14.87 C 31.519,53.506 27.036,63.833 26.032,75.162 H 5 v 9.678 h 21.033 c 1.003,11.331 5.485,21.658 12.382,29.903 l -14.869,14.87 6.843,6.842 14.869,-14.868 c 8.246,6.896 18.573,11.378 29.904,12.381 V 155 h 9.678 v -21.033 c 11.329,-1.003 21.656,-5.485 29.902,-12.382 l 14.871,14.869 6.842,-6.842 -14.869,-14.871 c 6.896,-8.245 11.379,-18.572 12.382,-29.902 H 155 V 84 z"
       style="fill:url(#radialGradient2861);stroke:#000000;stroke-width:5" />
    <circle
       id="circle2835"
       r="6"
       cy="80"
       cx="80"
       d="m 86,80 c 0,3.313708 -2.686292,6 -6,6 -3.313708,0 -6,-2.686292 -6,-6 0,-3.313708 2.686292,-6 6,-6 3.313708,0 6,2.686292 6,6 z"
       sodipodi:cx="80"
       sodipodi:cy="80"
       sodipodi:rx="6"
       sodipodi:ry="6"
       style="fill:none;stroke:#000000;stroke-width:4" />
    <circle
       id="circle2837"
       r="50"
       cy="80"
       cx="80"
       d="m 130,80 c 0,27.61424 -22.38576,50 -50,50 -27.614237,0 -50,-22.38576 -50,-50 0,-27.614237 22.385763,-50 50,-50 27.61424,0 50,22.385763 50,50 z"
       sodipodi:cx="80"
       sodipodi:cy="80"
       sodipodi:rx="50"
       sodipodi:ry="50"
       style="fill:none;stroke:#000000;stroke-width:5" />
  </g>
</svg>
